# xmcd CD database file
#
# Track frame offsets:
#	150
#	7197
#	36240
#	69737
#	96815
#	101727
#	129710
#	135812
#	167210
#	174520
#	201670
#	207940
#	236987
#
# Disc length: 3287 seconds
#
# Revision: 1
# Processed by: cddbd v1.4PL0 Copyright (c) Steve Scherf et al.
# Submitted via: CDex 1.50Beta6
#
DISCID=c30cd50d
DTITLE=Solitudes - Zen Escape
DYEAR=2000
DGENRE=New Age
TTITLE0=Zazen
TTITLE1=Path to enlightenment
TTITLE2=Ambrosial Dew
TTITLE3=Azure skies
TTITLE4=The Songbird
TTITLE5=Love and devotion
TTITLE6=Answered by silence
TTITLE7=Amisdt the cherry blossoms
TTITLE8=Satori
TTITLE9=The sacred shrine
TTITLE10=Reunion of Joy
TTITLE11=Perpetual peace
TTITLE12=The gateless gate
EXTD=YEAR: 2000
EXTT0=
EXTT1=
EXTT2=
EXTT3=
EXTT4=
EXTT5=
EXTT6=
EXTT7=
EXTT8=
EXTT9=
EXTT10=
EXTT11=
EXTT12=
PLAYORDER=
